<?xml version="1.0" standalone="no"?>
<!DOCTYPE svg PUBLIC "-//W3C//DTD SVG 20010904//EN"
 "http://www.w3.org/TR/2001/REC-SVG-20010904/DTD/svg10.dtd">
<svg version="1.0" xmlns="http://www.w3.org/2000/svg"
 width="16.000000pt" height="16.000000pt" viewBox="0 0 16.000000 16.000000"
 preserveAspectRatio="xMidYMid meet">
<metadata>
Created by potrace 1.11, written by Peter Selinger 2001-2013
</metadata>
<g transform="translate(0.000000,16.000000) scale(0.005333,-0.005333)"
fill="#000000" stroke="none">
<path d="M1469 2920 c-9 -5 -22 -22 -28 -37 -9 -23 -112 -86 -544 -335 -505
-291 -534 -306 -572 -301 -76 10 -118 -58 -71 -114 l26 -31 0 -609 c0 -597 0
-610 -20 -628 -26 -24 -27 -86 -2 -108 11 -10 35 -17 60 -17 35 0 112 -41 581
-312 469 -270 541 -315 541 -335 0 -50 71 -81 114 -50 10 7 21 28 25 47 6 33
25 44 537 340 493 284 533 306 571 302 34 -3 43 0 62 23 26 34 27 55 1 88 -20
25 -20 40 -20 637 l0 612 25 20 c56 44 11 138 -59 124 -25 -5 -106 38 -572
306 -375 216 -544 318 -544 330 0 22 -47 58 -74 58 -11 0 -28 -5 -37 -10z m-9
-127 c0 -5 -52 -144 -117 -310 l-116 -303 -420 0 c-231 0 -417 3 -413 8 11 10
1049 611 1059 611 4 1 7 -2 7 -6z m636 -300 c294 -170 534 -311 534 -315 0 -5
-145 -9 -322 -10 l-323 -3 324 -5 c203 -3 326 -9 328 -15 1 -5 -346 -124 -772
-264 -644 -211 -777 -252 -790 -241 -8 7 -15 18 -15 24 0 6 22 67 49 136 26
69 69 180 95 248 l48 122 161 2 162 2 -157 3 c-87 2 -158 7 -158 11 0 4 51
137 113 296 121 311 109 291 186 315 2 0 244 -137 537 -306z m-880 -340 c-3
-10 -46 -121 -95 -248 -87 -224 -90 -230 -124 -244 l-35 -13 -290 243 c-171
143 -291 251 -291 262 -1 16 25 17 420 17 396 0 420 -1 415 -17z m-563 -279
c281 -237 292 -248 298 -288 6 -40 4 -43 -69 -126 -42 -47 -79 -89 -83 -93 -4
-5 -19 12 -34 37 -36 62 -44 59 -9 -3 l28 -49 -34 -38 c-224 -257 -394 -442
-401 -438 -10 6 -12 1227 -2 1237 3 4 8 7 10 7 2 0 135 -111 296 -246z m2012
226 c3 -5 1 -19 -6 -31 -8 -15 -8 -19 0 -15 8 5 11 -158 11 -588 0 -595 0
-595 -21 -607 -18 -9 -59 7 -285 113 -145 67 -264 126 -264 130 0 4 17 36 38
70 48 77 64 108 58 108 -2 0 -28 -40 -57 -89 l-52 -89 -41 19 c-23 11 -246
115 -496 233 -292 136 -456 218 -458 229 -3 12 113 54 595 212 329 108 677
223 773 255 189 63 196 65 205 50z m-1098 -784 c263 -124 496 -233 518 -243
22 -11 151 -71 287 -134 269 -124 278 -132 211 -172 -153 -91 -1029 -594
-1031 -592 -2 1 7 19 19 39 11 20 19 36 16 36 -3 0 -16 -18 -28 -40 -13 -22
-25 -40 -29 -40 -25 0 -62 99 -260 688 -225 668 -228 681 -188 682 3 0 221
-101 485 -224z m-546 195 c5 -5 413 -1221 426 -1271 3 -10 -1 -9 -9 3 -32 46
-38 49 -17 10 12 -23 25 -41 28 -39 3 2 7 -6 7 -19 2 -20 -16 -12 -170 77 -94
54 -336 194 -538 311 -357 205 -368 212 -368 242 0 25 33 67 186 240 214 243
235 264 241 249 2 -6 10 -20 19 -30 11 -15 10 -10 -2 18 l-17 36 84 95 c65 74
88 94 104 90 11 -3 23 -8 26 -12z"/>
<path d="M379 2055 c18 -33 38 -64 44 -70 5 -5 -5 17 -23 50 -18 33 -38 65
-43 70 -6 6 4 -17 22 -50z"/>
<path d="M445 1940 c9 -16 18 -30 21 -30 2 0 -2 14 -11 30 -9 17 -18 30 -21
30 -2 0 2 -13 11 -30z"/>
<path d="M473 1893 c66 -116 100 -173 103 -173 3 0 3 3 1 8 -66 115 -100 172
-103 172 -3 0 -3 -3 -1 -7z"/>
<path d="M583 1703 c2 -5 35 -61 72 -125 36 -65 69 -118 71 -118 3 0 3 3 1 8
-2 4 -35 60 -72 125 -36 64 -69 117 -71 117 -3 0 -3 -3 -1 -7z"/>
<path d="M2585 1943 c-71 -120 -67 -113 -62 -113 3 0 30 44 62 98 71 119 67
112 62 112 -3 0 -30 -44 -62 -97z"/>
<path d="M2500 1800 c-6 -11 -8 -20 -6 -20 3 0 10 9 16 20 6 11 8 20 6 20 -3
0 -10 -9 -16 -20z"/>
<path d="M2425 1673 c-71 -120 -67 -113 -62 -113 3 0 30 44 62 98 71 119 67
112 62 112 -3 0 -30 -44 -62 -97z"/>
<path d="M2280 1428 c-87 -147 -82 -138 -77 -138 2 0 37 55 77 123 87 146 82
137 77 137 -2 0 -37 -55 -77 -122z"/>
<path d="M2050 1040 c-6 -11 -8 -20 -6 -20 3 0 10 9 16 20 6 11 8 20 6 20 -3
0 -10 -9 -16 -20z"/>
<path d="M1975 913 c-71 -120 -67 -113 -62 -113 3 0 30 44 62 98 71 119 67
112 62 112 -3 0 -30 -44 -62 -97z"/>
<path d="M1890 770 c-6 -11 -8 -20 -6 -20 3 0 10 9 16 20 6 11 8 20 6 20 -3 0
-10 -9 -16 -20z"/>
<path d="M1815 643 c-71 -120 -67 -113 -62 -113 3 0 30 44 62 98 71 119 67
112 62 112 -3 0 -30 -44 -62 -97z"/>
<path d="M1670 398 c-87 -147 -82 -138 -77 -138 2 0 37 55 77 123 87 146 82
137 77 137 -2 0 -37 -55 -77 -122z"/>
<path d="M843 1253 c2 -5 35 -61 72 -125 36 -65 69 -118 71 -118 3 0 3 3 1 8
-2 4 -35 60 -72 125 -36 64 -69 117 -71 117 -3 0 -3 -3 -1 -7z"/>
<path d="M993 993 c66 -116 100 -173 103 -173 3 0 3 3 1 8 -66 115 -100 172
-103 172 -3 0 -3 -3 -1 -7z"/>
<path d="M1115 780 c9 -16 18 -30 21 -30 2 0 -2 14 -11 30 -9 17 -18 30 -21
30 -2 0 2 -13 11 -30z"/>
<path d="M1143 733 c66 -116 100 -173 103 -173 3 0 3 3 1 8 -66 115 -100 172
-103 172 -3 0 -3 -3 -1 -7z"/>
<path d="M1253 543 c66 -116 100 -173 103 -173 3 0 3 3 1 8 -66 115 -100 172
-103 172 -3 0 -3 -3 -1 -7z"/>
<path d="M1375 330 c9 -16 18 -30 21 -30 2 0 -2 14 -11 30 -9 17 -18 30 -21
30 -2 0 2 -13 11 -30z"/>
</g>
</svg>
